<svg width="25" height="24" viewBox="0 0 25 24" fill="none" xmlns="http://www.w3.org/2000/svg">
<path fill-rule="evenodd" clip-rule="evenodd" d="M12.5 3C7.52944 3 3.5 7.02944 3.5 12C3.5 16.9706 7.52944 21 12.5 21C17.4706 21 21.5 16.9706 21.5 12C21.5 7.02944 17.4706 3 12.5 3ZM1.5 12C1.5 5.92487 6.42487 1 12.5 1C18.5751 1 23.5 5.92487 23.5 12C23.5 18.0751 18.5751 23 12.5 23C6.42487 23 1.5 18.0751 1.5 12Z" fill="#83838A"/>
<path fill-rule="evenodd" clip-rule="evenodd" d="M1.5 12C1.5 11.4477 1.94772 11 2.5 11H22.5C23.0523 11 23.5 11.4477 23.5 12C23.5 12.5523 23.0523 13 22.5 13H2.5C1.94772 13 1.5 12.5523 1.5 12Z" fill="#83838A"/>
<path fill-rule="evenodd" clip-rule="evenodd" d="M9.50023 12C9.56877 15.0748 10.6263 18.0352 12.5 20.4492C14.3737 18.0352 15.4312 15.0748 15.4998 12C15.4312 8.92516 14.3737 5.96484 12.5 3.5508C10.6263 5.96484 9.56877 8.92516 9.50023 12ZM12.5 2L11.7617 1.32558C9.09689 4.24291 7.58251 8.02885 7.50022 11.9792C7.49993 11.9931 7.49993 12.0069 7.50022 12.0208C7.58251 15.9711 9.09689 19.7571 11.7617 22.6744C11.9511 22.8818 12.2191 23 12.5 23C12.7809 23 13.0489 22.8818 13.2383 22.6744C15.9031 19.7571 17.4175 15.9711 17.4998 12.0208C17.5001 12.0069 17.5001 11.9931 17.4998 11.9792C17.4175 8.02885 15.9031 4.24291 13.2383 1.32558L12.5 2Z" fill="#83838A"/>
</svg>
